Coordinates
version=1
nRows=6
nColumns=34
inDegrees=yes

Units are S.I. units (second, meters, Newtons, ...)
If the header above contains a line with 'inDegrees', this indicates whether rotational values are in degrees (yes) or radians (no).

endheader
time	pelvis_tilt	pelvis_list	pelvis_rotation	pelvis_tx	pelvis_ty	pelvis_tz	hip_flexion_r	hip_adduction_r	hip_rotation_r	knee_angle_r	ankle_angle_r	subtalar_angle_r	mtp_angle_r	hip_flexion_l	hip_adduction_l	hip_rotation_l	knee_angle_l	ankle_angle_l	subtalar_angle_l	mtp_angle_l	lumbar_extension	lumbar_bending	lumbar_rotation	arm_flex_r	arm_add_r	arm_rot_r	elbow_flex_r	pro_sup_r	arm_flex_l	arm_add_l	arm_rot_l	elbow_flex_l	pro_sup_l
      2.56666670	    -17.31317324	      2.89495440	     -0.09946580	      0.01507782	      0.59483852	     -0.07244752	     79.31010749	    -16.29224048	      2.64589727	    105.15056468	     49.00012450	     10.70545685	      0.00000000	     78.61398217	    -21.55366983	     -0.60914460	    102.59586483	     50.00000000	     20.18632031	      0.00000000	    -33.94683444	     -0.40888358	      4.25453196	    123.97306331	     -2.70427276	     63.91009709	    122.66235754	     89.73470595	    130.68998779	     -2.45496486	     85.40527049	    121.40715596	     86.62763283
      2.58333330	    -17.82455802	      3.00081675	      0.04628787	      0.01567345	      0.58531257	     -0.07029426	     80.62590607	    -16.36859825	      3.10147515	    106.43088065	     50.00000000	     10.86984966	      0.00000000	     80.14255115	    -21.75870513	     -0.20339355	    104.25950243	     50.00000000	     19.93293187	      0.00000000	    -34.17957668	     -0.61452491	      4.38836893	    124.44131010	     -2.88388387	     63.72661751	    122.33672520	     89.59432456	    130.78646936	     -2.25958637	     85.20381881	    121.43115717	     86.49801616
      2.60000000	    -20.39682538	      3.06743839	      0.18726221	      0.01853288	      0.57036076	     -0.07343063	     84.36837893	    -16.67069949	      3.72966612	    108.04375173	     50.00000000	     11.57946132	      0.00000000	     83.95266755	    -21.89522490	      0.25365746	    106.08441551	     50.00000000	     19.73112519	      0.00000000	    -31.50547894	     -0.50540417	      4.84328928	    123.82870781	     -2.91817959	     64.62889902	    123.10218019	     89.05528627	    129.62299043	     -1.84346124	     85.18663898	    122.54872230	     85.92437706
      2.61666670	    -22.10203485	      3.23563488	      0.19962608	      0.01899793	      0.56282728	     -0.07346512	     86.79476358	    -16.74875340	      4.27965940	    109.08784024	     50.00000000	     11.47265994	      0.00000000	     86.51397258	    -22.10308002	      0.36344730	    107.57090534	     50.00000000	     19.31659323	      0.00000000	    -29.88377245	     -0.52870478	      5.20612942	    123.07221864	     -2.60133380	     65.67101185	    123.84958286	     88.40848760	    128.11135611	     -1.48676516	     85.07493234	    122.95519779	     85.20210973
      2.63333330	    -23.72348680	      3.45837321	      0.14761250	      0.01339053	      0.55054975	     -0.07436496	     89.57185901	    -16.75204366	      4.88519105	    110.23623179	     50.00000000	     11.19121164	      0.00000000	     89.24297896	    -22.18022473	      0.54967153	    108.78538312	     50.00000000	     19.53584574	      0.00000000	    -28.72626038	     -0.72513293	      5.51397374	    122.99958011	     -2.35259472	     66.19936870	    124.05154844	     87.83728862	    127.91712653	     -1.23343784	     84.75268642	    122.58402621	     84.55909765
      2.65000000	    -24.82031382	      3.66790092	      0.17004191	      0.00420557	      0.54275821	     -0.07389371	     92.36511047	    -16.68032935	      5.49408329	    111.48396384	     50.00000000	     11.00803398	      0.00000000	     91.76024375	    -22.06063421	      0.77526219	    109.87741703	     50.00000000	     19.53502605	      0.00000000	    -28.61659296	     -0.98331358	      5.54450686	    123.71950088	     -2.05412868	     66.61813063	    124.00089656	     87.26144819	    128.52496594	     -1.08550046	     84.60968120	    121.82052930	     83.88407777
